{"title":"Sonho de Valsa (Ana Carolina, 1987).avi","uid":8616657,"size":1468485632,"categoryP":"video","categoryS":"movies","magnet":"?xt=urn:btih:af2d7977e9da1631b936b835938e2f8f8668c72f&amp;dn=Sonho+de+Valsa+%28Ana+Carolina%2C+1987%29.avi&amp;tr=udp%3A%2F%2Ftracker.openbittorrent.com%3A80&amp;tr=udp%3A%2F%2Fopen.demonii.com%3A1337&amp;tr=udp%3A%2F%2Ftracker.coppersurfer.tk%3A6969&amp;tr=udp%3A%2F%2Fexodus.desync.com%3A6969","seeders":1,"leechers":0,"uploader":"rpessoa","files":1,"time":1372270328,"description":"In order to leave her past and family values behind, woman has relationships with many men and, among many doubts, tries to find out her own identity and happiness. \n &lt;a href=&quot;\nhttp://www.imdb.com/title/tt0180184/&quot; rel=&quot;nofollow&quot; target=&quot;_NEW&quot;&gt;\nhttp://www.imdb.com/title/tt0180184/&lt;/a&gt;\n\nGeneral\nComplete name : Sonho de Valsa (Ana Carolina, 1987).avi\nFormat : AVI\nFormat/Info : Audio Video Interleave\nFile size : 1.37 GiB\nDuration : 1h 31mn\nOverall bit rate : 2 134 Kbps\nWriting application : VirtualDubMod 1.5.4.1 (build 2178/release)\nWriting library : VirtualDubMod build 2178/release\n\nVideo\nID : 0\nFormat : MPEG-4 Visual\nFormat profile : Advanced Simple@L5\nFormat settings, BVOP : 1\nFormat settings, QPel : No\nFormat settings, GMC : No warppoints\nFormat settings, Matrix : Custom\nCodec ID : XVID\nCodec ID/Hint : XviD\nDuration : 1h 31mn\nBit rate : 1 935 Kbps\nWidth : 720 pixels\nHeight : 544 pixels\nDisplay aspect ratio : 4:3\nFrame rate : 23.976 fps\nColor space : YUV\nChroma subsampling : 4:2:0\nBit depth : 8 bits\nScan type : Progressive\nCompression mode : Lossy\nBits/(Pixel*Frame) : 0.206\nStream size : 1.24 GiB (91%)\nWriting library : XviD 1.2.1 (UTC 2008-12-04)\n\nAudio\nID : 1\nFormat : AC-3\nFormat/Info : Audio Coding 3\nMode extension : CM (complete main)\nCodec ID : 2000\nDuration : 1h 31mn\nBit rate mode : Constant\nBit rate : 192 Kbps\nChannel(s) : 2 channels\nChannel positions : Front: L R\nSampling rate : 48.0 KHz\nBit depth : 16 bits\nCompression mode : Lossy\nStream size : 126 MiB (9%)\nAlignment : Split accross interleaves\nInterleave, duration : 96 ms (2.30 video frames)\nInterleave, preload duration : 96 ms\nLanguage : po","torrent":{"xt":"urn:btih:af2d7977e9da1631b936b835938e2f8f8668c72f","amp;dn":"Sonho+de+Valsa+%28Ana+Carolina%2C+1987%29.avi","amp;tr":["udp%3A%2F%2Ftracker.openbittorrent.com%3A80","udp%3A%2F%2Fopen.demonii.com%3A1337","udp%3A%2F%2Ftracker.coppersurfer.tk%3A6969","udp%3A%2F%2Fexodus.desync.com%3A6969"],"infoHash":"af2d7977e9da1631b936b835938e2f8f8668c72f","infoHashBuffer":{"type":"Buffer","data":[175,45,121,119,233,218,22,49,185,54,184,53,147,142,47,143,134,104,199,47]},"announce":[],"urlList":[]}}